<svg xmlns="http://www.w3.org/2000/svg" viewBox="0 0 1600 900" preserveAspectRatio="xMidYMid slice">
  <defs>
    <linearGradient id="bg" x1="0%" y1="0%" x2="100%" y2="100%">
      <stop offset="0%" stop-color="#312e81" />
      <stop offset="55%" stop-color="#4c1d95" />
      <stop offset="100%" stop-color="#7c3aed" />
    </linearGradient>
    <radialGradient id="glow" cx="50%" cy="50%" r="60%">
      <stop offset="0%" stop-color="#ffffff" stop-opacity="0.16" />
      <stop offset="100%" stop-color="#ffffff" stop-opacity="0" />
    </radialGradient>
  </defs>
  <rect width="1600" height="900" fill="url(#bg)" />
  <circle cx="1220" cy="260" r="420" fill="url(#glow)" />
  <circle cx="260" cy="700" r="320" fill="url(#glow)" />
  <g stroke="#ffffff" stroke-opacity="0.14" stroke-width="1.5" fill="none">
    <circle cx="1220" cy="260" r="180" />
    <circle cx="1220" cy="260" r="260" />
    <circle cx="260" cy="700" r="140" />
  </g>
  <g transform="translate(800,450)" fill="#ffffff">
    <g transform="translate(-30,-90) scale(3.2)" fill-opacity="0.92">
      <path d="M12 2 L14.4 9.6 22 12 14.4 14.4 12 22 9.6 14.4 2 12 9.6 9.6 Z" />
    </g>
    <g transform="translate(46,-40) scale(1.5)" fill-opacity="0.7">
      <path d="M12 2 L14.4 9.6 22 12 14.4 14.4 12 22 9.6 14.4 2 12 9.6 9.6 Z" />
    </g>
    <g transform="translate(-72,30) scale(1.1)" fill-opacity="0.55">
      <path d="M12 2 L14.4 9.6 22 12 14.4 14.4 12 22 9.6 14.4 2 12 9.6 9.6 Z" />
    </g>
  </g>
</svg>
